<svg xmlns="http://www.w3.org/2000/svg" width="94" height="94" viewBox="0 0 94 94"><g transform="translate(-6.286 -1027.655)"><circle cx="47" cy="47" r="47" transform="translate(6.286 1027.655)" fill="#fff"/><path d="M36.29,14.8a15.417,15.417,0,1,1-30.831,0,15.417,15.417,0,1,1,30.831,0Z" transform="translate(32.411 1043.757)" fill="#d6d6d8"/><path d="M34.622,864.643a26.3,26.3,0,0,0-11.081,2.183A28.313,28.313,0,0,0,7.067,889.587a6.05,6.05,0,0,0,5.974,6.236H56.2a6.051,6.051,0,0,0,5.975-6.236A28.318,28.318,0,0,0,45.7,866.826,26.3,26.3,0,0,0,34.622,864.643Z" transform="translate(18.663 206.387)" fill="#d6d6d8"/></g></svg>