<svg xmlns="http://www.w3.org/2000/svg" width="29.474" height="29.474" viewBox="0 0 29.474 29.474"><g transform="translate(-4 -3)"><path d="M23.895,16.263a2.211,2.211,0,1,0-2.211-2.211A2.208,2.208,0,0,0,23.895,16.263Zm-10.316,0a2.211,2.211,0,1,0-2.211-2.211A2.208,2.208,0,0,0,13.579,16.263Zm5.158,10.316a8.836,8.836,0,0,0,8.326-5.895H10.411A8.836,8.836,0,0,0,18.737,26.579ZM18.729,3A14.737,14.737,0,1,0,33.474,17.737,14.726,14.726,0,0,0,18.729,3Zm.007,27.263c-6.514,0-12.526-6.013-12.526-12.526S12.223,5.211,18.737,5.211s12.526,6.013,12.526,12.526S25.25,30.263,18.737,30.263Z" transform="translate(0 0)" fill="#8793aa"/></g></svg>